<?xml version="1.0" encoding="UTF-8" standalone="no"?>
<!DOCTYPE svg PUBLIC "-//W3C//DTD SVG 1.1//EN" "http://www.w3.org/Graphics/SVG/1.1/DTD/svg11.dtd">
<svg xmlns="http://www.w3.org/2000/svg" version="1.1" viewBox="0.00 0.00 470.00 158.00">
<path fill="#f57b55" d="
  M 66.00 32.27
  Q 66.00 32.99 66.60 32.60
  L 107.69 6.06
  A 2.21 2.21 0.0 0 1 110.07 6.06
  L 129.72 18.67
  Q 130.13 18.93 130.54 18.67
  L 148.74 6.94
  A 1.18 1.16 -44.7 0 1 150.01 6.94
  L 240.24 66.20
  Q 241.49 67.02 241.07 68.45
  Q 240.88 69.10 240.35 69.64
  A 1.72 1.72 0.0 0 1 238.19 69.86
  L 149.88 11.86
  Q 149.37 11.52 148.85 11.85
  L 134.16 21.19
  A 0.29 0.29 0.0 0 0 134.16 21.67
  L 205.03 67.46
  Q 206.13 68.17 205.89 69.45
  Q 205.78 70.06 205.38 70.40
  Q 203.84 71.77 202.11 70.65
  L 109.69 10.74
  A 1.43 1.41 -44.7 0 0 108.16 10.74
  L 15.02 70.82
  A 1.64 1.62 32.0 0 1 13.95 71.06
  Q 12.64 70.91 12.26 70.08
  Q 11.37 68.13 13.18 66.97
  L 43.79 47.28
  A 1.54 1.52 73.8 0 0 44.49 45.99
  L 44.50 20.63
  Q 44.50 18.00 47.12 18.00
  L 63.75 18.00
  A 2.25 2.25 0.0 0 1 66.00 20.25
  L 66.00 32.27
  Z
  M 48.75 43.51
  A 0.33 0.33 0.0 0 0 49.26 43.79
  L 61.85 35.63
  A 0.33 0.33 0.0 0 0 62.00 35.35
  L 62.00 22.53
  A 0.33 0.33 0.0 0 0 61.67 22.20
  L 49.12 22.27
  A 0.33 0.33 0.0 0 0 48.79 22.60
  L 48.75 43.51
  Z"
/>
<path fill="#ffffff" d="
  M 48.72 118.50
  L 75.26 149.47
  Q 75.70 149.98 75.02 149.99
  L 69.30 150.00
  Q 68.47 150.01 67.93 149.38
  L 41.29 118.20
  Q 40.88 117.71 40.24 117.71
  L 17.73 117.72
  Q 17.17 117.72 17.17 118.27
  L 17.14 149.82
  Q 17.14 149.96 17.00 149.96
  L 12.00 150.01
  Q 11.73 150.01 11.73 149.75
  L 11.73 80.25
  Q 11.73 79.68 12.30 79.69
  Q 34.51 79.73 53.44 79.73
  C 70.27 79.73 78.68 99.93 66.88 112.01
  Q 60.34 118.70 49.19 117.59
  Q 47.82 117.46 48.72 118.50
  Z
  M 17.18 85.62
  L 17.18 111.76
  A 0.39 0.39 0.0 0 0 17.57 112.15
  L 53.29 112.15
  A 13.73 13.46 0.0 0 0 67.02 98.69
  L 67.02 98.69
  A 13.73 13.46 0.0 0 0 53.29 85.23
  L 17.57 85.23
  A 0.39 0.39 0.0 0 0 17.18 85.62
  Z"
/>
<path fill="#ffffff" d="
  M 97.73 85.59
  L 97.74 111.78
  A 0.34 0.34 0.0 0 0 98.08 112.12
  L 133.12 112.12
  A 0.34 0.34 0.0 0 1 133.46 112.46
  L 133.43 117.36
  A 0.34 0.34 0.0 0 1 133.09 117.70
  L 98.07 117.73
  A 0.34 0.34 0.0 0 0 97.73 118.07
  L 97.73 144.18
  A 0.34 0.34 0.0 0 0 98.07 144.52
  L 152.65 144.54
  A 0.34 0.34 0.0 0 1 152.99 144.88
  L 152.99 149.66
  A 0.34 0.34 0.0 0 1 152.65 150.00
  L 92.57 150.00
  A 0.34 0.34 0.0 0 1 92.23 149.66
  L 92.23 80.06
  A 0.34 0.34 0.0 0 1 92.57 79.72
  L 152.65 79.71
  A 0.34 0.34 0.0 0 1 152.99 80.05
  L 152.99 84.91
  A 0.34 0.34 0.0 0 1 152.65 85.25
  L 98.07 85.25
  A 0.34 0.34 0.0 0 0 97.73 85.59
  Z"
/>
<path fill="#ffffff" d="
  M 225.03 139.00
  L 225.04 80.01
  A 0.33 0.33 0.0 0 1 225.37 79.68
  L 230.18 79.73
  A 0.33 0.33 0.0 0 1 230.51 80.06
  L 230.51 149.67
  A 0.33 0.33 0.0 0 1 230.18 150.00
  L 226.58 149.97
  A 0.33 0.33 0.0 0 1 226.33 149.86
  L 175.75 90.55
  A 0.33 0.33 0.0 0 0 175.17 90.76
  L 175.15 149.67
  A 0.33 0.33 0.0 0 1 174.82 150.00
  L 170.06 150.00
  A 0.33 0.33 0.0 0 1 169.73 149.67
  L 169.74 80.04
  A 0.33 0.33 0.0 0 1 170.07 79.71
  L 173.53 79.72
  A 0.33 0.33 0.0 0 1 173.78 79.84
  L 224.45 139.21
  A 0.33 0.33 0.0 0 0 225.03 139.00
  Z"
/>
<path fill="#ffffff" d="
  M 407.72 118.07
  L 407.70 144.19
  A 0.34 0.34 0.0 0 0 408.04 144.53
  L 462.65 144.53
  A 0.34 0.34 0.0 0 1 462.99 144.87
  L 463.00 149.66
  A 0.34 0.34 0.0 0 1 462.66 150.00
  L 402.58 150.00
  A 0.34 0.34 0.0 0 1 402.24 149.66
  L 402.24 80.07
  A 0.34 0.34 0.0 0 1 402.58 79.73
  L 462.65 79.72
  A 0.34 0.34 0.0 0 1 462.99 80.06
  L 462.99 84.91
  A 0.34 0.34 0.0 0 1 462.65 85.25
  L 408.04 85.25
  A 0.34 0.34 0.0 0 0 407.70 85.59
  L 407.72 111.80
  A 0.34 0.34 0.0 0 0 408.06 112.14
  L 443.14 112.12
  A 0.34 0.34 0.0 0 1 443.48 112.46
  L 443.46 117.37
  A 0.34 0.34 0.0 0 1 443.12 117.71
  L 408.06 117.73
  A 0.34 0.34 0.0 0 0 407.72 118.07
  Z"
/>
<path fill="#ffffff" d="
  M 247.29 80.21
  A 0.57 0.57 0.0 0 1 247.86 79.64
  L 272.36 79.68
  A 35.67 35.13 0.1 0 1 307.97 114.87
  L 307.97 115.01
  A 35.67 35.13 0.1 0 1 272.24 150.08
  L 247.74 150.04
  A 0.57 0.57 0.0 0 1 247.17 149.47
  L 247.29 80.21
  Z
  M 252.62 85.63
  L 252.82 144.27
  A 0.36 0.36 0.0 0 0 253.18 144.63
  L 272.52 144.56
  A 30.08 29.59 -0.2 0 0 302.50 114.86
  L 302.50 114.68
  A 30.08 29.59 -0.2 0 0 272.32 85.20
  L 252.98 85.27
  A 0.36 0.36 0.0 0 0 252.62 85.63
  Z"
/>
<path fill="#ffffff" d="
  M 331.65 127.90
  C 339.67 150.10 370.74 149.91 378.65 127.70
  Q 380.17 123.42 380.11 116.83
  Q 379.93 98.34 380.10 79.91
  Q 380.11 79.73 380.28 79.73
  L 385.36 79.73
  Q 385.53 79.73 385.53 79.91
  Q 385.39 96.65 385.60 114.81
  Q 385.70 123.60 384.25 128.15
  C 377.29 150.05 350.38 157.57 333.68 141.05
  Q 328.26 135.69 326.06 128.51
  Q 324.54 123.53 324.65 114.57
  Q 324.85 97.41 324.70 80.04
  A 0.31 0.30 90.0 0 1 325.00 79.73
  L 329.97 79.74
  Q 330.11 79.74 330.11 79.88
  Q 330.33 99.47 330.10 115.99
  Q 330.00 123.36 331.65 127.90
  Z"
/>
</svg>
